<svg version="1.1" id="Layer_1" xmlns="http://www.w3.org/2000/svg" xmlns:xlink="http://www.w3.org/1999/xlink" x="0px" y="0px"
	 viewBox="0 0 417 87" style="enable-background:new 0 0 417 87;" xml:space="preserve">
<g>
	<path d="M50.3,46.3c0,2.9-0.4,5.4-1.2,7.6c-0.8,2.2-1.9,4.1-3.4,5.6c-1.5,1.5-3.3,2.7-5.5,3.5s-4.6,1.2-7.3,1.2
		c-2.6,0-4.9-0.4-7-1.2s-3.8-2-5.3-3.5c-1.5-1.5-2.6-3.4-3.4-5.6c-0.8-2.2-1.2-4.8-1.2-7.6l0-33.9h9.9l0,33.9c0,1.7,0.2,3.2,0.5,4.5
		c0.3,1.3,0.8,2.4,1.4,3.2c0.6,0.8,1.3,1.4,2.1,1.7s1.8,0.6,2.9,0.6c1.2,0,2.3-0.2,3.2-0.6c0.9-0.4,1.7-1,2.3-1.8
		c0.7-0.8,1.1-1.9,1.5-3.2c0.3-1.3,0.5-2.7,0.5-4.4l0-33.9h9.8L50.3,46.3z"/>
	<path d="M93.6,50.1c-0.3,1.6-0.6,3.1-1.1,4.5c-0.5,1.5-1.2,2.9-2.1,4.1c-0.9,1.2-1.9,2.3-3.1,3.1c-1.1,0.8-2.3,1.4-3.6,1.8
		c-1.3,0.4-2.8,0.6-4.4,0.6c-1.5,0-2.8-0.2-4-0.5c-1.2-0.4-2.3-0.9-3.3-1.6c-0.5-0.4-1-0.7-1.4-1.2c-0.4-0.4-0.9-0.9-1.3-1.4l-0.5,4
		h-8.8v-54h9.8V29c0.5-0.5,1-1,1.5-1.5c0.5-0.5,1.1-0.8,1.7-1.2c0.9-0.5,1.8-0.9,2.8-1.1s2.1-0.4,3.3-0.4c1.6,0,3.1,0.2,4.5,0.6
		s2.6,1,3.7,1.8c0.9,0.6,1.7,1.3,2.4,2.2c0.7,0.9,1.3,1.8,1.9,2.8c0.8,1.6,1.5,3.4,1.9,5.4c0.4,2,0.6,4.2,0.6,6.5v0.7
		C94,46.8,93.9,48.5,93.6,50.1z M84.1,41.3c-0.1-0.9-0.2-1.8-0.5-2.6c-0.3-1-0.6-1.8-1-2.6c-0.4-0.8-1-1.5-1.8-2.1
		c-0.5-0.4-1.1-0.7-1.8-0.9c-0.7-0.2-1.5-0.3-2.3-0.3c-1.2,0-2.2,0.2-3.1,0.5c-0.9,0.3-1.7,0.8-2.3,1.4c-0.3,0.3-0.6,0.7-0.8,1
		c-0.3,0.4-0.5,0.8-0.7,1.2v15.2c0.3,0.6,0.6,1.1,1,1.6c0.4,0.5,0.8,0.9,1.3,1.2c0.6,0.4,1.3,0.8,2.1,1c0.8,0.2,1.7,0.4,2.7,0.4
		c0.9,0,1.7-0.1,2.4-0.3s1.3-0.5,1.8-0.9c0.7-0.5,1.3-1.2,1.8-2c0.5-0.8,0.8-1.8,1-2.8c0.2-0.8,0.3-1.6,0.4-2.5
		c0.1-0.9,0.1-1.9,0.1-2.8v-0.7C84.2,43.2,84.2,42.2,84.1,41.3z"/>
	<path d="M113.4,62.8c-2.4-1-4.4-2.3-6.2-3.9c-1.7-1.6-3-3.6-4-5.8c-0.9-2.2-1.4-4.6-1.4-7.2v-1.4c0-2.9,0.5-5.6,1.4-8
		c0.9-2.4,2.2-4.5,3.8-6.2c1.6-1.7,3.6-3.1,5.8-4c2.2-1,4.7-1.4,7.3-1.4c2.7,0,5.2,0.5,7.3,1.4c2.1,0.9,4,2.2,5.5,3.8
		c1.5,1.6,2.6,3.6,3.4,5.9c0.8,2.3,1.2,4.9,1.2,7.6v4.1h-25.8v0.1c0.3,1.5,0.8,2.7,1.3,3.7c0.5,0.9,1.2,1.8,2.1,2.5
		c0.9,0.8,1.9,1.4,3.1,1.8c1.1,0.4,2.4,0.6,3.8,0.6c1.9,0,3.8-0.4,5.6-1.1c1.8-0.7,3.3-1.8,4.4-3.3l4.9,5.3
		c-1.2,1.8-3.2,3.4-5.9,4.8c-2.7,1.4-5.9,2.1-9.6,2.1C118.5,64.3,115.8,63.8,113.4,62.8z M117.2,33.3c-0.9,0.4-1.7,0.9-2.4,1.7
		c-0.7,0.7-1.3,1.6-1.8,2.6c-0.5,1-0.8,2.1-1.1,3.4h16v-0.8c0-1-0.2-2-0.6-2.9c-0.4-0.9-0.9-1.7-1.5-2.4c-0.7-0.7-1.5-1.2-2.4-1.6
		s-2-0.6-3.3-0.6C119.1,32.7,118.1,32.9,117.2,33.3z"/>
	<path d="M177.5,25.1c1.3,0.2,2.3,0.4,3,0.7l-1.4,9.7c-1.3-0.3-2.6-0.5-4-0.7c-1.3-0.2-2.6-0.2-3.8-0.2c-1.3,0-2.4,0.1-3.4,0.3
		c-1,0.2-1.9,0.6-2.7,1c-1,0.5-1.8,1.2-2.5,2c-0.7,0.8-1.2,1.7-1.7,2.8v22.9h-9.8v-38h9.1l0.4,5.4l0.1,0.8c1.5-2.2,3.4-3.8,5.6-5.1
		c2.2-1.2,4.5-1.8,7.1-1.8C174.9,24.8,176.3,24.9,177.5,25.1z"/>
	<path d="M188.9,12.4h17.2c2.8,0,5.3,0.3,7.6,0.8s4.2,1.4,5.9,2.6c1.6,1.1,2.9,2.6,3.7,4.4s1.3,3.8,1.3,6.2c0,1.5-0.3,3-0.8,4.4
		s-1.3,2.6-2.3,3.6c-0.6,0.6-1.2,1.1-1.9,1.5c-0.7,0.5-1.5,0.9-2.4,1.2v0c1.7,0.5,3,1.1,4,1.8c1,0.7,1.8,1.6,2.5,2.5
		c0.7,1,1.2,2.2,1.6,3.4c0.3,1.2,0.5,2.5,0.5,3.7c0,2.5-0.4,4.6-1.3,6.5c-0.8,1.9-2.1,3.4-3.6,4.7c-1.6,1.3-3.5,2.2-5.7,2.8
		s-4.8,0.9-7.6,0.9h-18.7V12.4z M206.2,33.8c1.5,0,2.8-0.2,4-0.5c1.1-0.3,2.1-0.8,2.8-1.5c0.6-0.5,1-1.2,1.4-2s0.5-1.7,0.5-2.6
		c0-1-0.1-1.9-0.4-2.7c-0.3-0.8-0.7-1.4-1.2-1.9c-0.7-0.7-1.6-1.3-2.8-1.6c-1.2-0.3-2.6-0.5-4.2-0.5h-7.3v13.4H206.2z M198.8,55.6
		h8.8c1.3,0,2.4-0.2,3.5-0.5c1-0.3,1.9-0.8,2.5-1.3c0.8-0.6,1.3-1.4,1.7-2.3c0.4-0.9,0.6-1.9,0.6-3c0-1.1-0.1-2.2-0.4-3.1
		c-0.3-0.9-0.8-1.7-1.4-2.3c-0.6-0.7-1.5-1.2-2.5-1.5c-1-0.4-2.2-0.5-3.6-0.6h-9.2V55.6z"/>
	<path d="M232.4,36.5c0.8-2.4,2-4.4,3.5-6.1c1.5-1.7,3.4-3.1,5.6-4.1s4.8-1.5,7.6-1.5c2.9,0,5.4,0.5,7.6,1.5c2.2,1,4.1,2.3,5.7,4.1
		c1.5,1.7,2.7,3.8,3.5,6.1c0.8,2.4,1.2,4.9,1.2,7.7v0.7c0,2.8-0.4,5.4-1.2,7.7c-0.8,2.4-2,4.4-3.5,6.1c-1.5,1.7-3.4,3.1-5.6,4.1
		c-2.2,1-4.8,1.5-7.6,1.5c-2.9,0-5.4-0.5-7.6-1.5c-2.2-1-4.1-2.3-5.6-4.1c-1.5-1.7-2.7-3.8-3.5-6.1c-0.8-2.4-1.2-4.9-1.2-7.7v-0.7
		C231.2,41.4,231.6,38.9,232.4,36.5z M241.4,49.4c0.3,1.4,0.8,2.6,1.4,3.6c0.7,1.1,1.5,1.9,2.5,2.5c1,0.6,2.3,0.9,3.8,0.9
		c1.4,0,2.7-0.3,3.7-0.9c1-0.6,1.9-1.4,2.5-2.5c0.6-1,1.1-2.2,1.4-3.6c0.3-1.4,0.5-2.9,0.5-4.5v-0.7c0-1.5-0.2-3-0.5-4.4
		c-0.3-1.4-0.8-2.6-1.4-3.7c-0.7-1.1-1.5-1.9-2.5-2.5c-1-0.6-2.3-0.9-3.8-0.9c-1.5,0-2.7,0.3-3.7,0.9c-1,0.6-1.9,1.4-2.5,2.5
		c-0.7,1.1-1.1,2.3-1.4,3.7c-0.3,1.4-0.5,2.8-0.5,4.4v0.7C241,46.5,241.1,48,241.4,49.4z"/>
	<path d="M275.6,36.5c0.8-2.4,2-4.4,3.5-6.1c1.5-1.7,3.4-3.1,5.6-4.1s4.8-1.5,7.6-1.5c2.9,0,5.4,0.5,7.6,1.5c2.2,1,4.1,2.3,5.7,4.1
		c1.5,1.7,2.7,3.8,3.5,6.1c0.8,2.4,1.2,4.9,1.2,7.7v0.7c0,2.8-0.4,5.4-1.2,7.7c-0.8,2.4-2,4.4-3.5,6.1c-1.5,1.7-3.4,3.1-5.6,4.1
		c-2.2,1-4.8,1.5-7.6,1.5c-2.9,0-5.4-0.5-7.6-1.5c-2.2-1-4.1-2.3-5.6-4.1c-1.5-1.7-2.7-3.8-3.5-6.1c-0.8-2.4-1.2-4.9-1.2-7.7v-0.7
		C274.4,41.4,274.8,38.9,275.6,36.5z M284.6,49.4c0.3,1.4,0.8,2.6,1.4,3.6c0.7,1.1,1.5,1.9,2.5,2.5c1,0.6,2.3,0.9,3.8,0.9
		c1.4,0,2.7-0.3,3.7-0.9c1-0.6,1.9-1.4,2.5-2.5c0.6-1,1.1-2.2,1.4-3.6c0.3-1.4,0.5-2.9,0.5-4.5v-0.7c0-1.5-0.2-3-0.5-4.4
		c-0.3-1.4-0.8-2.6-1.4-3.7c-0.7-1.1-1.5-1.9-2.5-2.5c-1-0.6-2.3-0.9-3.8-0.9c-1.5,0-2.7,0.3-3.7,0.9c-1,0.6-1.9,1.4-2.5,2.5
		c-0.7,1.1-1.1,2.3-1.4,3.7c-0.3,1.4-0.5,2.8-0.5,4.4v0.7C284.2,46.5,284.3,48,284.6,49.4z"/>
	<path d="M336.9,25.5h14.2v7.2h-14.2v16.3c0,1.4,0.2,2.5,0.5,3.5c0.3,0.9,0.8,1.7,1.4,2.2c0.6,0.6,1.3,1,2.1,1.2
		c0.8,0.2,1.8,0.4,2.8,0.4c0.8,0,1.5,0,2.3-0.1c0.8-0.1,1.5-0.2,2.3-0.3c0.7-0.1,1.4-0.2,2-0.3c0.6-0.1,1.2-0.2,1.6-0.4l0.9,6.7
		c-0.7,0.4-1.5,0.7-2.4,1c-0.9,0.3-1.9,0.5-2.9,0.7c-1,0.2-2.1,0.3-3.2,0.4c-1.1,0.1-2.2,0.2-3.3,0.2c-2.1,0-4-0.3-5.7-0.8
		c-1.7-0.6-3.1-1.4-4.3-2.6c-1.2-1.1-2.2-2.6-2.8-4.4c-0.7-1.8-1-3.9-1-6.5V32.7h-8.7v-7.2h8.7v-9.3h9.8V25.5z"/>
	<path d="M365.7,78.7c-0.7-0.1-1.5-0.3-2.3-0.5l1.2-7.5c0.4,0,0.9,0,1.5,0.1c0.6,0,1.1,0.1,1.5,0.1c0.8,0,1.5-0.2,2.1-0.7
		c0.6-0.5,1.1-1,1.5-1.6s0.7-1,0.9-1.3c0.2-0.3,0.4-0.7,0.7-1.2l2.2-4.2L359,25.5h10.7l8.7,22.3l1.1,3.9l1.4-3.8l8.7-22.4h10.8
		l-19.3,43.7c-0.4,1-1,2-1.6,3.1s-1.5,2.2-2.5,3.1c-1,1-2.2,1.8-3.7,2.4c-1.4,0.7-3.1,1-5.1,1C367.2,78.9,366.4,78.9,365.7,78.7z"/>
</g>
</svg>
