<svg width="37" height="38" viewBox="0 0 37 38" fill="none" xmlns="http://www.w3.org/2000/svg">
<path fill-rule="evenodd" clip-rule="evenodd" d="M36.9081 11.4526C36.7191 11.1322 36.3004 11.0221 35.9731 11.2082L31.636 13.6608C31.3092 13.8464 31.1967 14.2562 31.3857 14.5766C31.5125 14.7911 31.7427 14.9115 31.9792 14.9115C32.0959 14.9115 32.2131 14.8825 32.3208 14.8216L34.1794 13.7704C34.7835 15.5492 35.0892 17.4696 35.0892 19.4902C35.0892 31.6911 23.0813 36.6197 18.0731 36.6197C17.797 36.6197 17.5287 36.615 17.2653 36.6078C17.1924 36.6057 17.1201 36.6032 17.0483 36.6006C16.8392 36.5933 16.6343 36.5835 16.4337 36.5721C16.3803 36.5696 16.3265 36.567 16.2737 36.5634C16.0297 36.5479 15.7921 36.5293 15.5603 36.5081C15.507 36.5034 15.4547 36.4972 15.4019 36.492C15.2182 36.474 15.0381 36.4543 14.8628 36.4331C14.8016 36.4254 14.7409 36.4187 14.6802 36.4104C14.4653 36.3825 14.2551 36.353 14.0518 36.321C14.037 36.3184 14.0228 36.3158 14.0075 36.3132C13.8179 36.2827 13.6347 36.2497 13.4552 36.2156C13.3992 36.2052 13.3438 36.1944 13.2889 36.1835C13.1368 36.153 12.989 36.122 12.8453 36.0895C12.8068 36.0812 12.7672 36.0729 12.7297 36.0647C12.556 36.0244 12.3886 35.983 12.2265 35.9406C12.1806 35.9287 12.1362 35.9163 12.0913 35.9039C11.9699 35.8709 11.8516 35.8378 11.736 35.8042C11.689 35.7902 11.641 35.7763 11.5955 35.7623C11.4503 35.7184 11.3099 35.6735 11.1758 35.6285C11.1473 35.6187 11.1209 35.6094 11.0924 35.5996C10.9836 35.5623 10.878 35.5246 10.7761 35.4869C10.7296 35.4698 10.6847 35.4523 10.6399 35.4357C10.5517 35.4016 10.4667 35.368 10.3843 35.3344C10.3489 35.3205 10.3125 35.306 10.2782 35.2921C10.1736 35.2481 10.0738 35.2047 9.97721 35.1613C9.93497 35.1422 9.89431 35.1231 9.85366 35.1045C9.79505 35.0771 9.73802 35.0502 9.68311 35.0233C9.64193 35.0037 9.60021 34.9835 9.56114 34.9639C9.50148 34.9339 9.44445 34.9045 9.38954 34.875C9.3304 34.844 9.27391 34.814 9.22005 34.7835C9.18678 34.7655 9.15405 34.7474 9.12237 34.7298C9.10283 34.7184 9.08435 34.7076 9.06587 34.6967L34.6826 20.1378C34.8943 20.0179 35.0237 19.7972 35.0237 19.5584C35.0237 19.3192 34.8943 19.0985 34.6826 18.9786L8.14344 3.89612C7.93171 3.77623 7.67035 3.77571 7.45862 3.89509C7.24636 4.01447 7.11542 4.23617 7.11542 4.47596V25.5087C7.11542 25.7485 7.24636 25.9702 7.45968 26.0896C7.67194 26.2095 7.93383 26.2085 8.1445 26.0875L23.2391 17.4763C23.566 17.2897 23.6763 16.8794 23.4857 16.5595C23.2956 16.2401 22.8764 16.1316 22.5501 16.3182L8.48506 24.3423V5.63977L32.9756 19.5584L7.45651 34.0611C7.4507 34.0642 7.44595 34.0693 7.44014 34.073C7.41268 34.09 7.38628 34.1102 7.35988 34.1314C7.34721 34.1422 7.33296 34.152 7.32134 34.1639C7.31712 34.1675 7.31236 34.1701 7.30867 34.1737C7.28596 34.197 7.26801 34.2223 7.24953 34.2471C7.24214 34.2569 7.23369 34.2652 7.22683 34.2755C7.19937 34.3164 7.17719 34.3598 7.15977 34.4042C7.1566 34.413 7.15502 34.4218 7.15291 34.4306C7.13971 34.4678 7.1302 34.505 7.12439 34.5438C7.12387 34.5489 7.12123 34.5536 7.1207 34.5587C7.11911 34.5701 7.12123 34.581 7.1207 34.5918C7.11806 34.6239 7.11753 34.6559 7.11964 34.6879C7.12123 34.7055 7.12334 34.7226 7.12598 34.7401C7.13073 34.7711 7.13812 34.8016 7.14763 34.8321C7.15238 34.8476 7.15607 34.8631 7.16188 34.8786C7.17455 34.9112 7.19145 34.9422 7.20887 34.9727C7.21574 34.9841 7.22049 34.9965 7.22841 35.0073C7.25587 35.0476 7.28649 35.0864 7.32345 35.1215C7.44542 35.2373 10.4023 37.9597 18.0731 37.9597C24.6716 37.9597 36.4583 31.7882 36.4583 19.4902C36.4583 17.2267 36.0945 15.0779 35.3838 13.0893L36.6579 12.3678C36.9852 12.1833 37.0972 11.7735 36.9081 11.4526Z" fill="#E21F28"/>
<mask id="mask0_995:946" style="mask-type:alpha" maskUnits="userSpaceOnUse" x="0" y="0" width="37" height="33">
<path fill-rule="evenodd" clip-rule="evenodd" d="M0 0H36.7952V32.243H0V0Z" fill="white"/>
</mask>
<g mask="url(#mask0_995:946)">
<path fill-rule="evenodd" clip-rule="evenodd" d="M36.7034 8.554C36.5163 8.22186 36.102 8.10918 35.7794 8.30342L34.5683 9.02994C30.6635 2.79821 23.7737 0 18.5567 0C14.4382 0 9.89399 1.85439 6.39984 4.96113C3.47996 7.55705 -0.00012207 12.1614 -0.00012207 19.353C-0.00012207 25.8332 2.83324 29.6079 2.93799 29.7437L4.49981 31.9565C4.63113 32.1422 4.83698 32.243 5.04699 32.243C5.16216 32.243 5.27837 32.213 5.38468 32.1497L27.1574 19.1947C27.4805 19.0026 27.5909 18.5766 27.4039 18.2445C27.2173 17.9107 26.804 17.7975 26.4809 17.9896L5.23512 30.6317L4.01464 28.9034C3.98858 28.8685 1.35116 25.3556 1.35116 19.353C1.35116 12.6877 4.57746 8.42039 7.28315 6.01441C10.4902 3.16308 14.8098 1.39133 18.5567 1.39133C23.2307 1.39133 29.7635 4.01462 33.39 9.73767L29.4352 12.1109C29.1126 12.3041 29.0037 12.7301 29.1918 13.0623C29.3169 13.2839 29.5436 13.4078 29.776 13.4078C29.8917 13.4078 30.0084 13.3772 30.1153 13.3134L36.4595 9.50534C36.782 9.31217 36.891 8.88614 36.7034 8.554Z" fill="#444444"/>
</g>
<path fill-rule="evenodd" clip-rule="evenodd" d="M18.9389 15.1108L10.288 10.5964C9.97492 10.4328 9.86823 10.0731 10.0507 9.79172C10.2322 9.51035 10.6335 9.41447 10.946 9.578L19.5965 14.0924C19.9096 14.2559 20.0162 14.6161 19.8343 14.8975C19.7131 15.0857 19.4928 15.1905 19.267 15.1905C19.1553 15.1905 19.0421 15.1645 18.9389 15.1108Z" fill="#444444"/>
</svg>
