<svg width="65" height="65" viewBox="0 0 65 65" fill="none" xmlns="http://www.w3.org/2000/svg">
<path fill-rule="evenodd" clip-rule="evenodd" d="M64.8386 19.6108C64.5065 19.0621 63.7709 18.8736 63.1958 19.1922L55.5767 23.392C55.0025 23.7097 54.805 24.4115 55.137 24.9601C55.3597 25.3273 55.7641 25.5335 56.1796 25.5335C56.3846 25.5335 56.5906 25.484 56.7798 25.3796L60.0449 23.5796C61.106 26.6255 61.6431 29.9139 61.6431 33.3739C61.6431 54.2659 40.5481 62.7054 31.75 62.7054C31.2649 62.7054 30.7937 62.6974 30.3308 62.6851C30.2028 62.6815 30.0757 62.6771 29.9496 62.6727C29.5823 62.6603 29.2224 62.6435 28.8699 62.624C28.7762 62.6196 28.6816 62.6151 28.5888 62.609C28.1603 62.5824 27.7429 62.5505 27.3357 62.5143C27.242 62.5063 27.1502 62.4957 27.0574 62.4868C26.7346 62.4559 26.4183 62.4222 26.1103 62.386C26.0028 62.3727 25.8961 62.3612 25.7894 62.347C25.4119 62.2992 25.0427 62.2488 24.6856 62.1939C24.6596 62.1895 24.6346 62.1851 24.6077 62.1807C24.2747 62.1284 23.9528 62.0718 23.6374 62.0134C23.5391 61.9957 23.4417 61.9771 23.3452 61.9585C23.0781 61.9063 22.8184 61.8532 22.5661 61.7975C22.4984 61.7833 22.4288 61.7692 22.3629 61.755C22.0578 61.686 21.7637 61.6152 21.479 61.5426C21.3983 61.5223 21.3203 61.501 21.2415 61.4798C21.0282 61.4232 20.8204 61.3665 20.6172 61.309C20.5347 61.2851 20.4503 61.2612 20.3705 61.2373C20.1154 61.1621 19.8687 61.0851 19.6331 61.0081C19.583 60.9913 19.5366 60.9754 19.4865 60.9586C19.2954 60.8949 19.1099 60.8303 18.9309 60.7657C18.8493 60.7365 18.7704 60.7064 18.6916 60.6781C18.5367 60.6197 18.3873 60.5621 18.2426 60.5046C18.1805 60.4807 18.1165 60.4559 18.0562 60.4321C17.8725 60.3568 17.6972 60.2825 17.5275 60.2082C17.4533 60.1754 17.3818 60.1427 17.3104 60.1108C17.2075 60.0639 17.1073 60.0179 17.0108 59.9719C16.9385 59.9383 16.8652 59.9038 16.7965 59.8701C16.6917 59.8188 16.5915 59.7684 16.4951 59.7179C16.3912 59.6648 16.2919 59.6135 16.1973 59.5613C16.1389 59.5303 16.0814 59.4993 16.0257 59.4693C15.9914 59.4498 15.9589 59.4312 15.9265 59.4126L60.9288 34.4827C61.3008 34.2774 61.5281 33.8995 61.5281 33.4907C61.5281 33.081 61.3008 32.7031 60.9288 32.4978L14.306 6.6715C13.934 6.4662 13.4749 6.46531 13.1029 6.66973C12.73 6.87414 12.5 7.25377 12.5 7.66438V43.6797C12.5 44.0903 12.73 44.4699 13.1048 44.6743C13.4777 44.8796 13.9377 44.8778 14.3078 44.6708L40.8254 29.9254C41.3996 29.6059 41.5935 28.9033 41.2586 28.3555C40.9247 27.8087 40.1882 27.6228 39.615 27.9423L14.9061 41.6824V9.65721L57.93 33.4907L13.0992 58.3242C13.089 58.3295 13.0807 58.3383 13.0705 58.3445C13.0222 58.3737 12.9758 58.4082 12.9295 58.4445C12.9072 58.4631 12.8822 58.4799 12.8618 58.5003C12.8543 58.5065 12.846 58.5109 12.8395 58.5171C12.7996 58.5569 12.7681 58.6003 12.7356 58.6427C12.7226 58.6596 12.7078 58.6737 12.6957 58.6914C12.6475 58.7613 12.6085 58.8357 12.5779 58.9118C12.5724 58.9268 12.5696 58.9419 12.5659 58.9569C12.5427 59.0206 12.526 59.0843 12.5158 59.1507C12.5148 59.1595 12.5102 59.1675 12.5093 59.1764C12.5065 59.1958 12.5102 59.2144 12.5093 59.233C12.5046 59.2879 12.5037 59.3427 12.5074 59.3976C12.5102 59.4277 12.5139 59.4569 12.5186 59.487C12.5269 59.5401 12.5399 59.5923 12.5566 59.6445C12.5649 59.671 12.5714 59.6976 12.5816 59.7241C12.6039 59.7799 12.6336 59.833 12.6642 59.8852C12.6762 59.9046 12.6846 59.9259 12.6985 59.9445C12.7467 60.0135 12.8005 60.0799 12.8655 60.14C13.0797 60.3382 18.2742 65 31.75 65C43.342 65 64.0483 54.4323 64.0483 33.3739C64.0483 29.498 63.4092 25.8185 62.1607 22.4133L64.3989 21.178C64.974 20.862 65.1707 20.1603 64.8386 19.6108Z" fill="#E21F28"/>
<mask id="mask0_995:960" style="mask-type:alpha" maskUnits="userSpaceOnUse" x="0" y="0" width="65" height="56">
<path fill-rule="evenodd" clip-rule="evenodd" d="M0 0H64.6401V55.2111H0V0Z" fill="white"/>
</mask>
<g mask="url(#mask0_995:960)">
<path fill-rule="evenodd" clip-rule="evenodd" d="M64.4789 14.6474C64.1503 14.0786 63.4224 13.8857 62.8558 14.2183L60.7282 15.4623C53.8684 4.79149 41.7646 0 32.5996 0C25.3645 0 17.3814 3.17534 11.243 8.49514C6.11354 12.9403 -0.00012207 20.8244 -0.00012207 33.1389C-0.00012207 44.2352 4.97741 50.6989 5.16142 50.9313L7.90516 54.7204C8.13586 55.0383 8.49748 55.2111 8.86642 55.2111C9.06875 55.2111 9.2729 55.1596 9.45966 55.0512L47.7089 32.8679C48.2765 32.539 48.4706 31.8095 48.142 31.2407C47.8142 30.6692 47.0882 30.4754 46.5206 30.8043L9.19691 52.4519L7.05283 49.4925C7.00706 49.4328 2.37375 43.4175 2.37375 33.1389C2.37375 21.7257 8.04156 14.4186 12.7948 10.2987C18.4287 5.41627 26.0173 2.38242 32.5996 2.38242C40.8107 2.38242 52.2873 6.87439 58.6582 16.6742L51.7106 20.738C51.1439 21.0688 50.9525 21.7983 51.283 22.367C51.5027 22.7465 51.901 22.9587 52.3093 22.9587C52.5125 22.9587 52.7176 22.9064 52.9053 22.797L64.0505 16.2764C64.6172 15.9456 64.8085 15.2161 64.4789 14.6474Z" fill="#444444"/>
</g>
<path fill-rule="evenodd" clip-rule="evenodd" d="M33.2711 25.8748L18.0735 18.1446C17.5235 17.8646 17.3361 17.2486 17.6566 16.7668C17.9754 16.285 18.6804 16.1208 19.2295 16.4008L34.4263 24.131C34.9762 24.411 35.1637 25.0278 34.844 25.5096C34.6312 25.8318 34.2441 26.0113 33.8474 26.0113C33.6512 26.0113 33.4524 25.9668 33.2711 25.8748Z" fill="#444444"/>
</svg>
