<svg width="121" height="27" viewBox="0 0 121 27" fill="none" xmlns="http://www.w3.org/2000/svg">
<path fill-rule="evenodd" clip-rule="evenodd" d="M31 14.5079V4.50966C31 4.33989 31.076 4.21256 31.228 4.12768C31.38 4.04279 31.6168 4 31.9386 4H32.7631C33.26 4 33.5847 4.14381 33.7367 4.43074L36.3599 9.09592L36.4912 9.32427L36.6229 9.05172L39.2637 4.43074C39.4213 4.14381 39.7487 4 40.2457 4H41.0617C41.6876 4 42 4.17012 42 4.50966V14.5079C42 14.8362 41.6876 15 41.0617 15H40.6054C39.9799 15 39.6668 14.8362 39.6668 14.5079V8.03275L39.6055 8.01521L37.342 12.0655C37.2078 12.2647 37.0001 12.3643 36.7192 12.3643H36.272C36.126 12.3643 36.003 12.3391 35.9036 12.2893C35.8041 12.2398 35.7193 12.1651 35.6489 12.0655L33.377 8.01521L33.3157 8.03275V14.5079C33.3157 14.8362 33.0058 15 32.3859 15H31.9386C31.3128 15 31 14.8362 31 14.5079Z" fill="#444444"/>
<path fill-rule="evenodd" clip-rule="evenodd" d="M45.1534 14.8496C45.0511 14.7494 45 14.5901 45 14.372V4.61886C45 4.40069 45.0511 4.24324 45.1534 4.1458C45.2557 4.04836 45.4177 4 45.6407 4H51.5124C51.6809 4 51.8027 4.06178 51.8779 4.18569C51.9532 4.30961 51.9906 4.50977 51.9906 4.7869V5.26455C51.9906 5.54132 51.9532 5.74184 51.8779 5.86575C51.8027 5.98931 51.6809 6.05145 51.5124 6.05145H47.4715V8.33271H51.0795C51.2481 8.33271 51.3698 8.39449 51.4451 8.51841C51.52 8.64232 51.5578 8.84249 51.5578 9.11961V9.60608C51.5578 9.88321 51.52 10.0834 51.4451 10.2073C51.3698 10.3312 51.2481 10.393 51.0795 10.393H47.4715V12.9394H51.5218C51.6899 12.9394 51.8117 13.0015 51.8869 13.1254C51.9618 13.249 52 13.4467 52 13.7174V14.2127C52 14.4899 51.9618 14.6904 51.8869 14.814C51.8117 14.9379 51.6899 15 51.5218 15H45.6407C45.4177 15 45.2557 14.9499 45.1534 14.8496Z" fill="#444444"/>
<path fill-rule="evenodd" clip-rule="evenodd" d="M59.5183 12.9397C60.4302 12.9397 61.1206 12.6464 61.5899 12.06C62.0583 11.4732 62.293 10.6172 62.293 9.49135C62.293 8.37119 62.0583 7.51792 61.5899 6.93119C61.1206 6.34481 60.4302 6.05145 59.5183 6.05145H57.6589V12.9397H59.5183ZM55.1639 14.85C55.0546 14.7497 55 14.5905 55 14.3723V4.61921C55 4.40104 55.0546 4.24324 55.1639 4.14615C55.2731 4.04872 55.4462 4 55.6839 4H59.5183C60.6941 4 61.6906 4.21076 62.5095 4.63227C63.3284 5.05414 63.9484 5.67441 64.3688 6.49379C64.7896 7.31317 65 8.31259 65 9.49135C65 10.6761 64.7896 11.6784 64.3688 12.4977C63.9484 13.3171 63.3284 13.9392 62.5095 14.3635C61.6906 14.7878 60.6941 15 59.5183 15H55.6839C55.4462 15 55.2731 14.9499 55.1639 14.85Z" fill="#444444"/>
<path fill-rule="evenodd" clip-rule="evenodd" d="M66.2888 14.8684C66.0963 14.7809 66 14.6553 66 14.4916V4.51719C66 4.17286 66.3885 4 67.1672 4H67.8432C68.243 4 68.5361 4.04409 68.7217 4.13157C68.9072 4.21941 69 4.34818 69 4.51719V14.4916C69 14.8306 68.6145 15 67.8432 15H67.1672C66.7744 15 66.4813 14.9563 66.2888 14.8684Z" fill="#444444"/>
<path fill-rule="evenodd" clip-rule="evenodd" d="M76.2017 10.7035L75.2754 7.92717C75.2201 7.78686 75.1725 7.62551 75.133 7.44416C75.0934 7.26247 75.0582 7.08989 75.0275 6.92573H74.9634L74.9267 7.119C74.8656 7.46451 74.7949 7.7339 74.7154 7.92717L73.7525 10.7035H76.2017ZM70 14.657C70 14.5924 70.0212 14.4988 70.0641 14.376L73.6605 4.33393C73.7462 4.11154 74.055 4 74.5872 4H75.4311C75.9633 4 76.2721 4.11154 76.3578 4.33393L79.9538 14.376C79.9846 14.4931 80 14.5868 80 14.657C80 14.7741 79.9337 14.8607 79.8026 14.9162C79.6711 14.9719 79.4645 15 79.1836 15H78.4679C78.2108 15 78.0045 14.9747 77.8485 14.9249C77.6925 14.8755 77.5965 14.792 77.5595 14.6745L76.8988 12.7681H73.0551L72.3943 14.6745C72.3273 14.8913 72.0764 15 71.6424 15H70.9999C70.3337 15 70 14.8853 70 14.657Z" fill="#444444"/>
<path fill-rule="evenodd" clip-rule="evenodd" d="M83.1838 14.5059V6.04645H80.5039C80.3263 6.04645 80.1981 5.98482 80.1191 5.86157C80.0398 5.73795 80 5.53792 80 5.26147V4.78534C80 4.50888 80.0398 4.30885 80.1191 4.18559C80.1981 4.06198 80.3263 4 80.5039 4H88.4961C88.6737 4 88.8019 4.06198 88.8816 4.18559C88.9605 4.30885 89 4.50888 89 4.78534V5.26147C89 5.53792 88.9605 5.73795 88.8816 5.86157C88.8019 5.98482 88.6737 6.04645 88.4961 6.04645H85.8067V14.5059C85.8067 14.8355 85.4679 15 84.7899 15H84.201C83.5226 15 83.1838 14.8355 83.1838 14.5059Z" fill="#444444"/>
<path fill-rule="evenodd" clip-rule="evenodd" d="M91.1534 14.8496C91.0511 14.7494 91 14.5901 91 14.372V4.61886C91 4.40069 91.0511 4.24324 91.1534 4.1458C91.2553 4.04836 91.4178 4 91.6407 4H97.5127C97.6809 4 97.803 4.06178 97.8783 4.18569C97.9532 4.30961 97.9906 4.50977 97.9906 4.7869V5.26455C97.9906 5.54132 97.9532 5.74184 97.8783 5.86575C97.803 5.98931 97.6809 6.05145 97.5127 6.05145H93.4716V8.33271H97.0798C97.248 8.33271 97.3701 8.39449 97.445 8.51841C97.5203 8.64232 97.5578 8.84249 97.5578 9.11961V9.60608C97.5578 9.88321 97.5203 10.0834 97.445 10.2073C97.3701 10.3312 97.248 10.393 97.0798 10.393H93.4716V12.9394H97.5221C97.6899 12.9394 97.8116 13.0015 97.8869 13.1254C97.9622 13.249 98 13.4467 98 13.7174V14.2127C98 14.4899 97.9622 14.6904 97.8869 14.814C97.8116 14.9379 97.6899 15 97.5221 15H91.6407C91.4178 15 91.2553 14.9499 91.1534 14.8496Z" fill="#444444"/>
<path fill-rule="evenodd" clip-rule="evenodd" d="M102.307 13.6532C101.436 12.7552 101 11.3594 101 9.46553C101 5.82184 102.817 4 106.45 4C106.945 4 107.459 4.04619 107.991 4.13823C108.523 4.23027 108.968 4.35851 109.326 4.52225C109.684 4.68634 109.863 4.86938 109.863 5.0707C109.863 5.21479 109.801 5.40301 109.679 5.63638C109.556 5.86941 109.411 6.07521 109.243 6.25343C109.075 6.432 108.927 6.52128 108.798 6.52128C108.767 6.52128 108.685 6.49267 108.551 6.4351C108.257 6.31996 107.95 6.22344 107.628 6.14553C107.307 6.06797 106.899 6.02902 106.404 6.02902C105.443 6.02902 104.732 6.31548 104.271 6.88806C103.809 7.46098 103.578 8.32554 103.578 9.48276C103.578 10.6396 103.811 11.5121 104.275 12.0988C104.74 12.6862 105.437 12.9796 106.367 12.9796C106.85 12.9796 107.271 12.9338 107.628 12.8417C107.986 12.7493 108.336 12.6314 108.679 12.4873C108.697 12.4818 108.752 12.4605 108.844 12.4229C108.936 12.3853 109.003 12.3667 109.046 12.3667C109.205 12.3667 109.358 12.4546 109.504 12.6301C109.651 12.8059 109.771 13.0041 109.863 13.2257C109.954 13.4474 110 13.6073 110 13.7049C110 13.9869 109.8 14.2261 109.399 14.4216C108.999 14.6174 108.515 14.7628 107.95 14.8576C107.384 14.9528 106.856 15 106.367 15C104.532 15 103.179 14.5512 102.307 13.6532Z" fill="#444444"/>
<path fill-rule="evenodd" clip-rule="evenodd" d="M111 14.5079V4.50966C111 4.33989 111.082 4.21256 111.247 4.12768C111.412 4.04279 111.672 4 112.028 4H112.639C112.995 4 113.255 4.04279 113.42 4.12768C113.585 4.21256 113.667 4.33989 113.667 4.50966V8.36668H118.323V4.50966C118.323 4.33989 118.407 4.21256 118.575 4.12768C118.743 4.04279 119.005 4 119.361 4H119.963C120.655 4 121 4.17012 121 4.50966V14.5079C121 14.8362 120.655 15 119.963 15H119.361C118.669 15 118.323 14.8362 118.323 14.5079V10.4313H113.667V14.5079C113.667 14.8362 113.324 15 112.639 15H112.028C111.343 15 111 14.8362 111 14.5079Z" fill="#444444"/>
<path fill-rule="evenodd" clip-rule="evenodd" d="M32.5374 17L34.013 21.2592L35.4713 17H37L34.6229 23H33.4034L31 17H32.5374Z" fill="#E21F28"/>
<path fill-rule="evenodd" clip-rule="evenodd" d="M47 21.7833V23H44V17H46.9459V18.2167H44.986V19.383H46.6693V20.5069H44.986V21.7833H47Z" fill="#E21F28"/>
<path fill-rule="evenodd" clip-rule="evenodd" d="M56.3166 19.5691V23H55V17H56.0274L58.6834 20.5241V17H60V23H58.9406L56.3166 19.5691Z" fill="#E21F28"/>
<path fill-rule="evenodd" clip-rule="evenodd" d="M72 18.2167H70.5529V23H69.4538V18.2167H68V17H72V18.2167Z" fill="#E21F28"/>
<path fill-rule="evenodd" clip-rule="evenodd" d="M83.0633 21.6298C83.2169 21.5321 83.3413 21.4022 83.4364 21.24C83.5318 21.0783 83.5989 20.8927 83.6387 20.6832C83.6785 20.4737 83.6983 20.2597 83.6983 20.0419V17H85V20.0419C85 20.4555 84.9509 20.8408 84.8529 21.1984C84.755 21.5556 84.6043 21.8689 84.4006 22.1367C84.1969 22.4049 83.9375 22.6159 83.6229 22.7697C83.308 22.9231 82.9339 23 82.4998 23C82.0504 23 81.6669 22.9193 81.3495 22.7568C81.0316 22.5951 80.7741 22.3787 80.5761 22.1075C80.3774 21.8367 80.2317 21.5223 80.1395 21.1647C80.0466 20.8074 80 20.4328 80 20.0419V17H81.3017V20.0419C81.3017 20.2707 81.3229 20.4892 81.3652 20.6953C81.4076 20.9021 81.4764 21.0866 81.5718 21.2484C81.6669 21.4105 81.7899 21.5393 81.9406 21.6344C82.0913 21.7291 82.2778 21.7764 82.4998 21.7764C82.7222 21.7764 82.9102 21.7279 83.0633 21.6298Z" fill="#E21F28"/>
<path fill-rule="evenodd" clip-rule="evenodd" d="M94.1083 19.8566H95.1214C95.2521 19.8566 95.3648 19.779 95.4595 19.6243C95.5539 19.4692 95.6012 19.2706 95.6012 19.0284C95.6012 18.7805 95.5471 18.5834 95.439 18.4367C95.3312 18.2904 95.2139 18.217 95.0878 18.217H94.1083V19.8566ZM93 23V17H95.162C95.3871 17 95.5957 17.0592 95.7869 17.1776C95.9787 17.296 96.1439 17.4511 96.2838 17.6425C96.4234 17.8339 96.5324 18.0509 96.6112 18.2931C96.6903 18.5352 96.7297 18.7805 96.7297 19.0284C96.7297 19.214 96.7114 19.3928 96.6753 19.5651C96.6393 19.737 96.5877 19.8986 96.5202 20.0506C96.4527 20.2026 96.3702 20.3398 96.2737 20.4609C96.1766 20.5816 96.0676 20.6847 95.946 20.7691L97 23H95.7499L94.831 21.0652H94.1083V23H93Z" fill="#E21F28"/>
<path fill-rule="evenodd" clip-rule="evenodd" d="M109 21.7833V23H106V17H108.946V18.2167H106.986V19.383H108.669V20.5069H106.986V21.7833H109Z" fill="#E21F28"/>
<mask id="mask0_1030:69" style="mask-type:alpha" maskUnits="userSpaceOnUse" x="117" y="18" width="4" height="6">
<path fill-rule="evenodd" clip-rule="evenodd" d="M117.1 18.1133H120.973V23.766H117.1V18.1133Z" fill="white"/>
</mask>
<g mask="url(#mask0_1030:69)">
<path fill-rule="evenodd" clip-rule="evenodd" d="M120.34 19.7841C120.326 19.7629 120.279 19.7245 120.197 19.6669C120.115 19.6098 120.013 19.5498 119.89 19.4873C119.768 19.4248 119.634 19.3701 119.489 19.3232C119.344 19.2766 119.199 19.2533 119.053 19.2533C118.654 19.2533 118.454 19.4068 118.454 19.7135C118.454 19.8074 118.476 19.8858 118.519 19.9479C118.562 20.0103 118.626 20.0665 118.71 20.1159C118.794 20.1653 118.899 20.2108 119.026 20.2525C119.153 20.2941 119.3 20.341 119.468 20.3929C119.7 20.466 119.909 20.5454 120.095 20.6312C120.281 20.7169 120.438 20.8239 120.568 20.9513C120.697 21.0787 120.797 21.2336 120.867 21.4158C120.938 21.5979 120.973 21.8167 120.973 22.0715C120.973 22.3842 120.922 22.6482 120.82 22.8642C120.718 23.0802 120.583 23.2546 120.415 23.3873C120.247 23.52 120.054 23.6163 119.836 23.6763C119.618 23.736 119.394 23.766 119.162 23.766C118.985 23.766 118.804 23.7505 118.617 23.719C118.432 23.6883 118.25 23.6425 118.073 23.5825C117.896 23.5228 117.725 23.4512 117.559 23.3679C117.393 23.2849 117.24 23.1882 117.1 23.0788L117.59 21.9625C117.608 21.9886 117.667 22.038 117.767 22.1107C117.867 22.1838 117.99 22.2565 118.138 22.3292C118.285 22.4022 118.45 22.4672 118.631 22.5247C118.813 22.5819 118.996 22.6105 119.183 22.6105C119.577 22.6105 119.775 22.4728 119.775 22.1968C119.775 22.0927 119.745 22.0066 119.687 21.9388C119.628 21.8714 119.546 21.81 119.441 21.7553C119.337 21.7009 119.213 21.6501 119.07 21.6032C118.927 21.5562 118.772 21.5047 118.604 21.4472C118.382 21.3692 118.189 21.2841 118.026 21.1934C117.862 21.1023 117.727 20.9972 117.62 20.8772C117.514 20.7575 117.434 20.6195 117.382 20.4635C117.33 20.3068 117.304 20.125 117.304 19.9165C117.304 19.6253 117.352 19.3676 117.447 19.1439C117.542 18.9201 117.672 18.7313 117.835 18.5778C117.998 18.4242 118.188 18.3085 118.403 18.2301C118.619 18.1521 118.847 18.1133 119.087 18.1133C119.255 18.1133 119.421 18.1313 119.584 18.1676C119.748 18.2043 119.904 18.2513 120.054 18.3085C120.204 18.3656 120.343 18.4309 120.473 18.5036C120.602 18.5767 120.721 18.6494 120.83 18.7225L120.34 19.7841Z" fill="#E21F28"/>
</g>
<path fill-rule="evenodd" clip-rule="evenodd" d="M25.9354 8.37338C25.8026 8.14822 25.5084 8.07087 25.2783 8.20161L22.2307 9.92511C22.001 10.0555 21.922 10.3435 22.0548 10.5686C22.1439 10.7193 22.3056 10.8039 22.4719 10.8039C22.5539 10.8039 22.6362 10.7836 22.7119 10.7407L24.0179 10.0021C24.4424 11.2521 24.6572 12.6015 24.6572 14.0214C24.6572 22.595 16.2192 26.0584 12.7 26.0584C12.506 26.0584 12.3175 26.0551 12.1323 26.05C12.0811 26.0485 12.0303 26.0467 11.9798 26.0449C11.8329 26.0398 11.6889 26.0329 11.548 26.0249C11.5105 26.0231 11.4726 26.0213 11.4355 26.0188C11.2641 26.0079 11.0972 25.9948 10.9343 25.9799C10.8968 25.9766 10.8601 25.9723 10.823 25.9687C10.6938 25.9559 10.5673 25.9421 10.4441 25.9273C10.4011 25.9218 10.3584 25.9171 10.3158 25.9113C10.1648 25.8917 10.0171 25.871 9.87424 25.8485C9.86385 25.8466 9.85383 25.8448 9.84307 25.843C9.70987 25.8216 9.58112 25.7983 9.45497 25.7744C9.41564 25.7671 9.37668 25.7595 9.3381 25.7519C9.23124 25.7304 9.12735 25.7086 9.02643 25.6858C8.99934 25.68 8.97152 25.6741 8.94517 25.6683C8.8231 25.64 8.70549 25.611 8.59158 25.5812C8.5593 25.5728 8.52814 25.5641 8.4966 25.5554C8.41126 25.5322 8.32815 25.5089 8.24689 25.4853C8.21387 25.4755 8.18011 25.4657 8.1482 25.4559C8.04617 25.425 7.94747 25.3934 7.85323 25.3618C7.83319 25.3549 7.81464 25.3484 7.79461 25.3415C7.71817 25.3154 7.64397 25.2888 7.57236 25.2623C7.53971 25.2503 7.50817 25.238 7.47663 25.2264C7.41467 25.2024 7.35493 25.1788 7.29705 25.1552C7.27219 25.1454 7.24659 25.1352 7.22248 25.1254C7.14901 25.0946 7.07889 25.0641 7.01099 25.0336C6.98131 25.0201 6.95274 25.0067 6.92417 24.9936C6.88298 24.9744 6.84291 24.9555 6.80432 24.9366C6.77538 24.9228 6.74607 24.9086 6.71862 24.8948C6.67669 24.8738 6.63662 24.8531 6.59803 24.8324C6.55648 24.8106 6.51678 24.7895 6.47893 24.7681C6.45556 24.7554 6.43255 24.7427 6.41029 24.7303C6.39656 24.7223 6.38358 24.7147 6.37059 24.7071L24.3715 14.4765C24.5203 14.3922 24.6112 14.2371 24.6112 14.0694C24.6112 13.9012 24.5203 13.7462 24.3715 13.6619L5.7224 3.06342C5.57361 2.97917 5.38995 2.9788 5.24117 3.06269C5.09202 3.14658 5 3.30237 5 3.47087V18.2507C5 18.4192 5.09202 18.575 5.24191 18.6588C5.39107 18.7431 5.5751 18.7424 5.72314 18.6574L16.3302 12.6062C16.5598 12.4751 16.6374 12.1868 16.5034 11.962C16.3699 11.7376 16.0753 11.6613 15.846 11.7924L5.96245 17.431V4.28868L23.172 14.0694L5.23969 24.2604C5.2356 24.2626 5.23227 24.2662 5.22818 24.2688C5.20889 24.2807 5.19034 24.2949 5.17179 24.3098C5.16288 24.3174 5.15286 24.3243 5.1447 24.3327C5.14173 24.3352 5.13839 24.337 5.1358 24.3396C5.11984 24.3559 5.10723 24.3737 5.09424 24.3911C5.08905 24.398 5.08311 24.4039 5.07829 24.4111C5.05899 24.4398 5.04341 24.4703 5.03117 24.5015C5.02894 24.5077 5.02783 24.5139 5.02634 24.5201C5.01707 24.5462 5.01039 24.5723 5.00631 24.5996C5.00594 24.6032 5.00408 24.6065 5.00371 24.6101C5.0026 24.6181 5.00408 24.6257 5.00371 24.6334C5.00186 24.6559 5.00148 24.6784 5.00297 24.7009C5.00408 24.7133 5.00557 24.7252 5.00742 24.7376C5.01076 24.7594 5.01595 24.7808 5.02263 24.8022C5.02597 24.8131 5.02857 24.824 5.03265 24.8349C5.04156 24.8578 5.05343 24.8796 5.06567 24.901C5.0705 24.909 5.07384 24.9177 5.0794 24.9253C5.09869 24.9537 5.12021 24.9809 5.14619 25.0056C5.23189 25.0869 7.30967 27 12.7 27C17.3368 27 25.6193 22.6633 25.6193 14.0214C25.6193 12.4308 25.3637 10.9209 24.8643 9.52347L25.7596 9.01651C25.9896 8.88687 26.0683 8.59889 25.9354 8.37338Z" fill="#E21F28"/>
<mask id="mask1_1030:69" style="mask-type:alpha" maskUnits="userSpaceOnUse" x="0" y="0" width="26" height="23">
<path fill-rule="evenodd" clip-rule="evenodd" d="M0 0.325684H25.8561V22.9829H0V0.325684Z" fill="white"/>
</mask>
<g mask="url(#mask1_1030:69)">
<path fill-rule="evenodd" clip-rule="evenodd" d="M25.7915 6.3366C25.66 6.10321 25.3689 6.02403 25.1422 6.16052L24.2912 6.67104C21.5473 2.292 16.7058 0.325684 13.0398 0.325684C10.1457 0.325684 6.9525 1.62877 4.49715 3.81188C2.44534 5.63604 -0.00012207 8.8715 -0.00012207 13.9251C-0.00012207 18.4787 1.99089 21.1313 2.0645 21.2267L3.16199 22.7816C3.25427 22.9121 3.39892 22.9829 3.5465 22.9829C3.62743 22.9829 3.70909 22.9618 3.78379 22.9173L19.0835 13.8139C19.3106 13.6789 19.3882 13.3795 19.2567 13.1461C19.1256 12.9116 18.8352 12.832 18.6082 12.967L3.67869 21.8507L2.82106 20.6362C2.80275 20.6117 0.949427 18.1431 0.949427 13.9251C0.949427 9.24139 3.21655 6.24272 5.11785 4.55203C7.37143 2.54839 10.4068 1.30337 13.0398 1.30337C16.3242 1.30337 20.9149 3.14677 23.4632 7.16837L20.6842 8.83606C20.4575 8.9718 20.3809 9.27118 20.5131 9.50457C20.601 9.66029 20.7603 9.74739 20.9237 9.74739C21.0049 9.74739 21.087 9.7259 21.162 9.68103L25.6201 7.00511C25.8468 6.86937 25.9233 6.57 25.7915 6.3366Z" fill="#444444"/>
</g>
<path fill-rule="evenodd" clip-rule="evenodd" d="M13.3084 10.944L7.22939 7.7717C7.0094 7.65678 6.93443 7.40397 7.06264 7.20625C7.19016 7.00854 7.47216 6.94116 7.69181 7.05608L13.7705 10.2283C13.9905 10.3433 14.0655 10.5964 13.9376 10.7941C13.8525 10.9263 13.6976 11 13.5389 11C13.4605 11 13.3809 10.9817 13.3084 10.944Z" fill="#444444"/>
</svg>
