<svg width="20" height="21" viewBox="0 0 20 21" fill="none" xmlns="http://www.w3.org/2000/svg">
<path d="M19.6875 10.5C19.6875 12.8958 18.9062 15.0052 17.3438 16.8281C15.7812 18.625 13.8411 19.7057 11.5234 20.0703V13.3125H13.7891L14.2188 10.5H11.5234V8.66406C11.5234 7.67448 12.0443 7.17969 13.0859 7.17969H14.2969V4.79688C13.5677 4.66667 12.8516 4.60156 12.1484 4.60156C11.3932 4.60156 10.7422 4.74479 10.1953 5.03125C9.67448 5.31771 9.25781 5.7474 8.94531 6.32031C8.63281 6.89323 8.47656 7.57031 8.47656 8.35156V10.5H6.01562V13.3125H8.47656V20.0703C6.15885 19.7057 4.21875 18.625 2.65625 16.8281C1.09375 15.0052 0.3125 12.8958 0.3125 10.5C0.3125 7.81771 1.25 5.53906 3.125 3.66406C5.02604 1.76302 7.31771 0.8125 10 0.8125C12.6823 0.8125 14.9609 1.76302 16.8359 3.66406C18.737 5.53906 19.6875 7.81771 19.6875 10.5Z" fill="#4F4F4F"/>
</svg>
