<svg width="18" height="19" viewBox="0 0 18 19" fill="none" xmlns="http://www.w3.org/2000/svg">
<path d="M7.26562 8.05469C7.68229 7.63802 8.17708 7.42969 8.75 7.42969C9.32292 7.42969 9.80469 7.63802 10.1953 8.05469C10.612 8.44531 10.8203 8.92708 10.8203 9.5C10.8203 10.0729 10.612 10.5677 10.1953 10.9844C9.80469 11.375 9.32292 11.5703 8.75 11.5703C8.17708 11.5703 7.68229 11.375 7.26562 10.9844C6.875 10.5677 6.67969 10.0729 6.67969 9.5C6.67969 8.92708 6.875 8.44531 7.26562 8.05469ZM13.6328 5.82812C13.7891 6.24479 13.8672 7.46875 13.8672 9.5C13.8672 11.5312 13.7891 12.7552 13.6328 13.1719C13.3984 13.7448 12.9948 14.1484 12.4219 14.3828C12.0052 14.5391 10.7812 14.6172 8.75 14.6172C6.71875 14.6172 5.49479 14.5391 5.07812 14.3828C4.50521 14.1484 4.10156 13.7448 3.86719 13.1719C3.71094 12.7552 3.63281 11.5312 3.63281 9.5C3.63281 7.46875 3.71094 6.24479 3.86719 5.82812C4.10156 5.25521 4.50521 4.85156 5.07812 4.61719C5.49479 4.46094 6.71875 4.38281 8.75 4.38281C10.7812 4.38281 12.0052 4.46094 12.4219 4.61719C12.9948 4.85156 13.3984 5.25521 13.6328 5.82812ZM6.48438 11.7656C7.10938 12.3906 7.86458 12.7031 8.75 12.7031C9.63542 12.7031 10.3906 12.3906 11.0156 11.7656C11.6406 11.1406 11.9531 10.3854 11.9531 9.5C11.9531 8.61458 11.6406 7.85938 11.0156 7.23438C10.3906 6.60938 9.63542 6.29688 8.75 6.29688C7.86458 6.29688 7.10938 6.60938 6.48438 7.23438C5.85938 7.85938 5.54688 8.61458 5.54688 9.5C5.54688 10.3854 5.85938 11.1406 6.48438 11.7656ZM11.5234 6.6875C11.6797 6.84375 11.862 6.92188 12.0703 6.92188C12.2786 6.92188 12.4609 6.85677 12.6172 6.72656C12.7734 6.57031 12.8516 6.38802 12.8516 6.17969C12.8516 5.97135 12.7734 5.78906 12.6172 5.63281C12.4609 5.47656 12.2786 5.39844 12.0703 5.39844C11.862 5.39844 11.6797 5.47656 11.5234 5.63281C11.3932 5.78906 11.3281 5.97135 11.3281 6.17969C11.3281 6.36198 11.3932 6.53125 11.5234 6.6875ZM15.625 0.75C16.1458 0.75 16.5885 0.932292 16.9531 1.29688C17.3177 1.66146 17.5 2.10417 17.5 2.625V16.375C17.5 16.8958 17.3177 17.3385 16.9531 17.7031C16.5885 18.0677 16.1458 18.25 15.625 18.25H1.875C1.35417 18.25 0.911458 18.0677 0.546875 17.7031C0.182292 17.3385 0 16.8958 0 16.375V2.625C0 2.10417 0.182292 1.66146 0.546875 1.29688C0.911458 0.932292 1.35417 0.75 1.875 0.75H15.625ZM14.9609 12.0781C14.987 11.5573 15 10.6979 15 9.5C15 8.30208 14.987 7.44271 14.9609 6.92188C14.9089 5.80208 14.5703 4.92969 13.9453 4.30469C13.3203 3.67969 12.4479 3.34115 11.3281 3.28906C10.8073 3.26302 9.94792 3.25 8.75 3.25C7.55208 3.25 6.69271 3.26302 6.17188 3.28906C5.05208 3.34115 4.17969 3.67969 3.55469 4.30469C2.92969 4.92969 2.59115 5.80208 2.53906 6.92188C2.51302 7.44271 2.5 8.30208 2.5 9.5C2.5 10.6979 2.51302 11.5573 2.53906 12.0781C2.59115 13.1979 2.92969 14.0703 3.55469 14.6953C4.17969 15.3203 5.05208 15.6589 6.17188 15.7109C6.69271 15.737 7.55208 15.75 8.75 15.75C9.94792 15.75 10.8073 15.737 11.3281 15.7109C12.4479 15.6589 13.3203 15.3203 13.9453 14.6953C14.5703 14.0703 14.9089 13.1979 14.9609 12.0781Z" fill="#4F4F4F"/>
</svg>
