<svg width="18" height="19" viewBox="0 0 18 19" fill="none" xmlns="http://www.w3.org/2000/svg">
<path d="M16.25 0.75C16.5885 0.75 16.875 0.880208 17.1094 1.14062C17.3698 1.375 17.5 1.66146 17.5 2V17C17.5 17.3385 17.3698 17.625 17.1094 17.8594C16.875 18.1198 16.5885 18.25 16.25 18.25H1.25C0.911458 18.25 0.611979 18.1198 0.351562 17.8594C0.117188 17.625 0 17.3385 0 17V2C0 1.66146 0.117188 1.375 0.351562 1.14062C0.611979 0.880208 0.911458 0.75 1.25 0.75H16.25ZM5.27344 15.75H5.3125V7.39062H2.69531V15.75H5.27344ZM2.92969 5.82812C3.21615 6.11458 3.56771 6.25781 3.98438 6.25781C4.40104 6.25781 4.7526 6.11458 5.03906 5.82812C5.35156 5.51562 5.50781 5.16406 5.50781 4.77344C5.50781 4.35677 5.35156 4.00521 5.03906 3.71875C4.7526 3.40625 4.40104 3.25 3.98438 3.25C3.56771 3.25 3.21615 3.40625 2.92969 3.71875C2.64323 4.00521 2.5 4.35677 2.5 4.77344C2.5 5.16406 2.64323 5.51562 2.92969 5.82812ZM15 15.75V11.1797C15 10.5547 14.9609 10.0208 14.8828 9.57812C14.8047 9.13542 14.6615 8.73177 14.4531 8.36719C14.2448 7.97656 13.9193 7.6901 13.4766 7.50781C13.0599 7.29948 12.5391 7.19531 11.9141 7.19531C11.3151 7.19531 10.7943 7.32552 10.3516 7.58594C9.9349 7.84635 9.63542 8.15885 9.45312 8.52344H9.41406V7.39062H6.91406V15.75H9.53125V11.6094C9.53125 10.9583 9.63542 10.4375 9.84375 10.0469C10.0521 9.65625 10.4557 9.46094 11.0547 9.46094C11.3672 9.46094 11.6276 9.52604 11.8359 9.65625C12.0443 9.78646 12.1745 9.98177 12.2266 10.2422C12.3047 10.5026 12.3568 10.737 12.3828 10.9453C12.4089 11.1276 12.4219 11.375 12.4219 11.6875V15.75H15Z" fill="#4F4F4F"/>
</svg>
