<svg width="20" height="17" viewBox="0 0 20 17" fill="none" xmlns="http://www.w3.org/2000/svg">
<path d="M17.9297 4.4375C17.9557 4.54167 17.9688 4.71094 17.9688 4.94531C17.9688 6.32552 17.7083 7.70573 17.1875 9.08594C16.6667 10.4401 15.9245 11.6901 14.9609 12.8359C14.0234 13.9557 12.7995 14.8672 11.2891 15.5703C9.77865 16.2734 8.11198 16.625 6.28906 16.625C3.9974 16.625 1.90104 16.013 0 14.7891C0.286458 14.8151 0.611979 14.8281 0.976562 14.8281C2.8776 14.8281 4.58333 14.2422 6.09375 13.0703C5.18229 13.0703 4.375 12.8099 3.67188 12.2891C2.99479 11.7422 2.52604 11.0651 2.26562 10.2578C2.52604 10.2839 2.77344 10.2969 3.00781 10.2969C3.3724 10.2969 3.73698 10.2578 4.10156 10.1797C3.47656 10.0495 2.91667 9.78906 2.42188 9.39844C1.92708 9.00781 1.53646 8.53906 1.25 7.99219C0.963542 7.41927 0.820312 6.80729 0.820312 6.15625V6.07812C1.39323 6.41667 2.00521 6.59896 2.65625 6.625C1.43229 5.79167 0.820312 4.64583 0.820312 3.1875C0.820312 2.45833 1.01562 1.76823 1.40625 1.11719C2.42188 2.39323 3.65885 3.40885 5.11719 4.16406C6.60156 4.91927 8.17708 5.33594 9.84375 5.41406C9.79167 5.10156 9.76562 4.78906 9.76562 4.47656C9.76562 3.35677 10.1562 2.39323 10.9375 1.58594C11.7448 0.778646 12.7083 0.375 13.8281 0.375C15.026 0.375 16.0286 0.804688 16.8359 1.66406C17.7734 1.48177 18.6458 1.15625 19.4531 0.6875C19.1406 1.65104 18.5417 2.40625 17.6562 2.95312C18.4375 2.84896 19.2188 2.6276 20 2.28906C19.4271 3.1224 18.737 3.83854 17.9297 4.4375Z" fill="#4F4F4F"/>
</svg>
