<svg width="93" height="92" viewBox="0 0 93 92" fill="none" xmlns="http://www.w3.org/2000/svg">
  <g clip-path="url(#clip0)">
    <rect x="1.1" y="0.6" width="90.8" height="90.8" rx="4.4" fill="white"/>
    <rect x="7.5" y="7" width="10" height="10" rx="2" fill="#E4EBEB" fill-opacity="0.5"/>
    <rect x="7.5" y="23" width="78" height="52" rx="4" fill="#E4EBEB" fill-opacity="0.5"/>
    <path d="M46.3628 60.907L54.2486 50.9476C54.3762 50.7863 54.2614 50.5488 54.0557 50.5488H37.7465C37.5371 50.5488 37.4234 50.7938 37.5587 50.9537L45.9821 60.9132C46.0824 61.0319 46.2663 61.029 46.3628 60.907Z" fill="#F7F9F9" stroke="#CAD6D7" stroke-width="1.5"/>
    <path d="M54.1491 50.0893L46.1511 46.2793C46.0119 46.2129 45.8496 46.2158 45.7127 46.2868L37.8373 50.3773C37.4941 50.5555 37.4812 51.0418 37.8145 51.238L45.6754 55.8652C45.8321 55.9575 46.027 55.9557 46.182 55.8608L54.1945 50.9532C54.5274 50.7493 54.5016 50.2573 54.1491 50.0893Z" fill="#F7F9F9" stroke="#CAD6D7" stroke-width="1.5"/>
    <path d="M46.3628 51.6756L54.2486 41.7161C54.3762 41.5548 54.2614 41.3174 54.0557 41.3174H37.7465C37.5371 41.3174 37.4234 41.5624 37.5587 41.7223L45.9821 51.6818C46.0824 51.8005 46.2663 51.7975 46.3628 51.6756Z" fill="#F7F9F9" stroke="#CAD6D7" stroke-width="1.5"/>
    <path d="M54.1491 40.8579L46.1511 37.0478C46.0119 36.9815 45.8496 36.9843 45.7127 37.0554L37.8373 41.1458C37.4941 41.324 37.4812 41.8103 37.8145 42.0065L45.6754 46.6338C45.8321 46.726 46.027 46.7243 46.182 46.6294L54.1945 41.7218C54.5274 41.5178 54.5016 41.0259 54.1491 40.8579Z" fill="#F7F9F9" stroke="#CAD6D7" stroke-width="1.5"/>
    <mask id="path-8-outside-1" maskUnits="userSpaceOnUse" x="35.5" y="35" width="21" height="28" fill="black">
      <rect fill="white" x="35.5" y="35" width="21" height="28"/>
      <path fill-rule="evenodd" clip-rule="evenodd" d="M46.1511 37.0478L54.149 40.8579C54.4649 41.0084 54.5184 41.4189 54.2867 41.6494C54.278 41.6726 54.2654 41.6951 54.2486 41.7163L49.4077 47.8302L54.149 50.0889C54.4649 50.2394 54.5184 50.65 54.2867 50.8805C54.278 50.9036 54.2654 50.9261 54.2486 50.9473L46.3628 60.9068C46.2663 61.0287 46.0824 61.0316 45.9821 60.913L37.7806 51.2159C37.7072 51.1646 37.6532 51.098 37.6186 51.0243L37.5587 50.9534C37.4508 50.8259 37.5012 50.6443 37.6323 50.576C37.6765 50.4951 37.7449 50.4248 37.8372 50.3769L42.7293 47.836L37.7805 41.9847C37.7071 41.9334 37.6533 41.867 37.6187 41.7934L37.5587 41.7224C37.4508 41.5949 37.5012 41.4133 37.6322 41.345C37.6765 41.264 37.7449 41.1938 37.8372 41.1458L45.7127 37.0554C45.8496 36.9843 46.0119 36.9815 46.1511 37.0478Z"/>
    </mask>
    <path d="M54.149 40.8579L54.6651 39.7746L54.6651 39.7746L54.149 40.8579ZM46.1511 37.0478L45.635 38.1312L45.635 38.1312L46.1511 37.0478ZM54.2867 41.6494L53.4405 40.7986L53.2562 40.9819L53.1643 41.225L54.2867 41.6494ZM54.2486 41.7163L55.1894 42.4612L55.1896 42.461L54.2486 41.7163ZM49.4077 47.8302L48.4669 47.0853L47.532 48.266L48.8916 48.9136L49.4077 47.8302ZM54.149 50.0889L54.6653 49.0056L54.6651 49.0056L54.149 50.0889ZM54.2867 50.8805L53.4405 50.0296L53.2562 50.2129L53.1643 50.4561L54.2867 50.8805ZM54.2486 50.9473L55.1894 51.6922L55.1896 51.6919L54.2486 50.9473ZM46.3628 60.9068L45.422 60.1618L45.4218 60.1621L46.3628 60.9068ZM45.9821 60.913L46.8984 60.1381L46.8983 60.138L45.9821 60.913ZM37.7806 51.2159L38.6969 50.441L38.5959 50.3216L38.4678 50.2321L37.7806 51.2159ZM37.6186 51.0243L38.7048 50.5143L38.6374 50.3706L38.5349 50.2494L37.6186 51.0243ZM37.5587 50.9534L36.6424 51.7283L36.6424 51.7283L37.5587 50.9534ZM37.6323 50.576L38.1872 51.64L38.5105 51.4714L38.6853 51.1514L37.6323 50.576ZM37.8372 50.3769L38.3903 51.4418L38.3904 51.4418L37.8372 50.3769ZM42.7293 47.836L43.2824 48.9009L44.6158 48.2083L43.6455 47.061L42.7293 47.836ZM37.7805 41.9847L38.6967 41.2098L38.5959 41.0906L38.4679 41.0011L37.7805 41.9847ZM37.6187 41.7934L38.7047 41.283L38.6373 41.1395L38.5349 41.0185L37.6187 41.7934ZM37.5587 41.7224L38.4749 40.9475L38.4749 40.9475L37.5587 41.7224ZM37.6322 41.345L38.1874 42.4088L38.5106 42.2402L38.6854 41.9202L37.6322 41.345ZM37.8372 41.1458L38.3904 42.2107L38.3904 42.2107L37.8372 41.1458ZM45.7127 37.0554L45.1596 35.9905L45.1596 35.9905L45.7127 37.0554ZM54.6651 39.7746L46.6672 35.9645L45.635 38.1312L53.633 41.9413L54.6651 39.7746ZM55.133 42.5002C55.9308 41.7066 55.7586 40.2955 54.6651 39.7746L53.633 41.9413C53.1711 41.7213 53.106 41.1313 53.4405 40.7986L55.133 42.5002ZM55.1896 42.461C55.2824 42.3437 55.3564 42.2133 55.4092 42.0739L53.1643 41.225C53.1995 41.1318 53.2484 41.0464 53.3076 40.9716L55.1896 42.461ZM50.3485 48.5752L55.1894 42.4612L53.3078 40.9714L48.4669 47.0853L50.3485 48.5752ZM54.6651 49.0056L49.9237 46.7469L48.8916 48.9136L53.633 51.1723L54.6651 49.0056ZM55.1329 51.7313C55.931 50.9376 55.7585 49.5266 54.6653 49.0056L53.6328 51.1722C53.1713 50.9523 53.1059 50.3624 53.4405 50.0296L55.1329 51.7313ZM55.1896 51.6919C55.2824 51.5747 55.3564 51.4443 55.4092 51.3049L53.1643 50.4561C53.1995 50.3629 53.2484 50.2775 53.3076 50.2027L55.1896 51.6919ZM47.3036 61.6517L55.1894 51.6922L53.3078 50.2024L45.422 60.1618L47.3036 61.6517ZM45.0658 61.6878C45.6557 62.3853 46.7367 62.3681 47.3039 61.6514L45.4218 60.1621C45.7959 59.6893 46.5092 59.678 46.8984 60.1381L45.0658 61.6878ZM36.8644 51.9908L45.0658 61.6879L46.8983 60.138L38.6969 50.441L36.8644 51.9908ZM36.5324 51.5344C36.6539 51.7932 36.8433 52.0249 37.0934 52.1996L38.4678 50.2321C38.571 50.3042 38.6525 50.4029 38.7048 50.5143L36.5324 51.5344ZM36.6424 51.7283L36.7024 51.7992L38.5349 50.2494L38.4749 50.1785L36.6424 51.7283ZM37.0774 49.512C36.3203 49.9068 35.9982 50.9665 36.6424 51.7283L38.4749 50.1785C38.9035 50.6852 38.6822 51.3818 38.1872 51.64L37.0774 49.512ZM37.2842 49.3119C36.9757 49.4721 36.7353 49.715 36.5792 50.0005L38.6853 51.1514C38.6177 51.2751 38.5141 51.3775 38.3903 51.4418L37.2842 49.3119ZM42.1762 46.771L37.2841 49.3119L38.3904 51.4418L43.2824 48.9009L42.1762 46.771ZM36.8642 42.7596L41.813 48.6109L43.6455 47.061L38.6967 41.2098L36.8642 42.7596ZM36.5326 42.3038C36.6541 42.5622 36.8433 42.7937 37.093 42.9683L38.4679 41.0011C38.571 41.0732 38.6524 41.1717 38.7047 41.283L36.5326 42.3038ZM36.6424 42.4973L36.7024 42.5683L38.5349 41.0185L38.4749 40.9475L36.6424 42.4973ZM37.0771 40.2811C36.3202 40.676 35.9982 41.7356 36.6424 42.4974L38.4749 40.9475C38.9035 41.4542 38.6822 42.1507 38.1874 42.4088L37.0771 40.2811ZM37.2841 40.0809C36.9756 40.2411 36.7351 40.4841 36.5791 40.7697L38.6854 41.9202C38.6178 42.044 38.5142 42.1464 38.3904 42.2107L37.2841 40.0809ZM45.1596 35.9905L37.2841 40.0809L38.3904 42.2107L46.2658 38.1203L45.1596 35.9905ZM46.6672 35.9645C46.1884 35.7364 45.6303 35.746 45.1596 35.9905L46.2658 38.1203C46.0688 38.2226 45.8353 38.2266 45.635 38.1312L46.6672 35.9645Z" fill="#CAD6D7" mask="url(#path-8-outside-1)"/>
    <rect x="1.1" y="80.6" width="90.8" height="10.8" fill="white" stroke="#CAD6D7" stroke-width="0.8"/>
    <path d="M8.288 84.2L7.552 84.46L7.664 84.852L8.228 84.692V87H8.688V84.2H8.288ZM11.2643 87.052C11.8523 87.052 12.3203 86.592 12.3203 86C12.3203 85.404 11.8523 84.948 11.2643 84.948C10.6803 84.948 10.2083 85.404 10.2083 86C10.2083 86.592 10.6803 87.052 11.2643 87.052ZM11.2643 86.632C10.9123 86.632 10.6403 86.364 10.6403 86C10.6403 85.636 10.9123 85.368 11.2643 85.368C11.6163 85.368 11.8883 85.636 11.8883 86C11.8883 86.364 11.6163 86.632 11.2643 86.632ZM13.7286 84.564V84.148C13.1286 84.108 12.8246 84.42 12.8246 84.96V85H12.5206V85.416H12.8246V87H13.2566V85.416H13.7286V85H13.2566V84.96C13.2566 84.652 13.4246 84.536 13.7286 84.564ZM15.5974 84.2L14.8614 84.46L14.9734 84.852L15.5374 84.692V87H15.9974V84.2H15.5974Z" fill="#CAD6D7"/>
    <rect x="21.5" y="10" width="24" height="4" rx="2" fill="#E4EBEB" fill-opacity="0.5"/>
  </g>
  <rect x="1.1" y="0.6" width="90.8" height="90.8" rx="4.4" stroke="#CAD6D7" stroke-width="0.8"/>
  <defs>
    <clipPath id="clip0">
    </clipPath>
  </defs>
</svg>
