<svg width="138" height="28" viewBox="0 0 138 28" fill="none" xmlns="http://www.w3.org/2000/svg">
<path d="M29.7001 21.7632H35.7321C40.1781 21.7632 42.9601 20.5932 42.9601 16.9012C42.9601 13.6252 40.7501 12.4812 37.9421 12.4292V11.8052C39.8401 11.6752 41.6081 10.5832 41.6081 7.93118C41.6081 4.31718 39.0341 3.43318 34.5621 3.43318H29.7001V21.7632ZM31.8321 11.3112V5.25318H34.6401C37.6301 5.25318 39.4761 5.43518 39.4761 8.26918C39.4761 10.8692 37.6301 11.3112 34.6401 11.3112H31.8321ZM31.8321 19.9432V13.1312H35.8101C38.9301 13.1312 40.8281 13.8592 40.8281 16.5372C40.8281 19.4232 38.9301 19.9432 35.8101 19.9432H31.8321ZM49.2637 6.78718C50.3037 6.78718 51.1357 6.00718 51.1357 4.96718C51.1357 3.97918 50.3037 3.17318 49.2637 3.17318C48.1977 3.17318 47.3917 3.97918 47.3917 4.96718C47.3917 6.00718 48.1977 6.78718 49.2637 6.78718ZM44.9477 21.7632H54.2297V19.9432H50.5897V10.1412C50.5897 9.15318 50.1217 8.47718 48.8997 8.58118L45.9097 8.84118V10.6612L48.5877 10.4272V19.9432H44.9477V21.7632ZM59.29 20.2292V10.6612H63.32V8.84118H59.29V4.86318L57.184 5.51318V8.84118H54.324V10.6612H57.184V20.2552C57.184 21.4512 57.73 22.1012 58.952 22.0232L63.84 21.7632V19.9432L59.29 20.2292ZM66.612 12.5852C66.612 17.9412 69.81 22.0232 75.192 22.0232C79.872 22.0232 82.94 19.2152 83.486 14.6652H81.354C80.938 18.1752 78.78 20.2032 75.192 20.2032C70.928 20.2032 68.744 17.0312 68.744 12.5852C68.744 8.16518 70.928 4.99318 75.192 4.99318C78.78 4.99318 80.938 6.99518 81.354 10.5052H83.486C82.94 5.98118 79.872 3.17318 75.192 3.17318C69.81 3.17318 66.612 7.25518 66.612 12.5852ZM84.7033 21.7632H94.0633V19.9432H90.4493V4.18718C90.4493 2.96518 89.8773 2.28918 88.6813 2.39318L85.6653 2.65318V4.47318L88.3433 4.23918V19.9432H84.7033V21.7632ZM95.5258 15.2892C95.5258 19.0592 98.2298 22.0232 102.364 22.0232C106.472 22.0232 109.15 19.0592 109.15 15.2892C109.15 11.5452 106.472 8.58118 102.364 8.58118C98.2298 8.58118 95.5258 11.5452 95.5258 15.2892ZM97.6578 15.2892C97.6578 12.6112 99.2958 10.4012 102.364 10.4012C105.406 10.4012 107.044 12.6112 107.044 15.2892C107.044 17.9932 105.406 20.2032 102.364 20.2032C99.2958 20.2032 97.6578 17.9932 97.6578 15.2892ZM117.266 20.2032C115.03 20.2032 113.99 19.1632 113.99 16.4592V8.84118H111.858V16.7452C111.858 20.3332 113.756 22.0232 116.694 22.0232C119.502 22.0232 121.14 20.3852 121.66 18.0452H122.258L121.92 19.5272V21.7632H124.026V8.84118H121.92V14.5872C121.92 18.0452 119.996 20.2032 117.266 20.2032ZM131.247 20.2292V10.6612H135.277V8.84118H131.247V4.86318L129.141 5.51318V8.84118H126.281V10.6612H129.141V20.2552C129.141 21.4512 129.687 22.1012 130.909 22.0232L135.797 21.7632V19.9432L131.247 20.2292Z" fill="#222222"/>
<path d="M9.66243 25.3511L17.6755 15.2309C17.8052 15.067 17.6885 14.8257 17.4795 14.8257H0.907031C0.694218 14.8257 0.57872 15.0746 0.716149 15.2371L9.27554 25.3574C9.37753 25.478 9.56439 25.475 9.66243 25.3511Z" fill="white" stroke="black"/>
<path d="M17.5745 14.3587L9.44746 10.4872C9.30597 10.4197 9.14105 10.4226 9.00196 10.4948L0.999407 14.6513C0.650668 14.8324 0.637574 15.3265 0.976231 15.5259L8.96405 20.2278C9.1233 20.3216 9.32127 20.3198 9.47885 20.2233L17.6206 15.2365C17.9589 15.0293 17.9327 14.5294 17.5745 14.3587Z" fill="white" stroke="black"/>
<path d="M9.66243 15.971L17.6755 5.85075C17.8052 5.68686 17.6885 5.44556 17.4795 5.44556H0.907031C0.694218 5.44556 0.57872 5.69451 0.716149 5.857L9.27554 15.9773C9.37753 16.0979 9.56439 16.0948 9.66243 15.971Z" fill="white" stroke="black"/>
<path d="M17.5745 4.97862L9.44746 1.10703C9.30597 1.03962 9.14105 1.04246 9.00196 1.1147L0.999407 5.27113C0.650668 5.45226 0.637574 5.9464 0.976231 6.14574L8.96405 10.8477C9.1233 10.9414 9.32127 10.9397 9.47885 10.8432L17.6206 5.85639C17.9589 5.64915 17.9327 5.14926 17.5745 4.97862Z" fill="white" stroke="black"/>
</svg>
