<?xml version="1.0" encoding="UTF-8" ?>
<!DOCTYPE svg PUBLIC "-//W3C//DTD SVG 1.1//EN" "http://www.w3.org/Graphics/SVG/1.1/DTD/svg11.dtd">
<svg width="704pt" height="801pt" viewBox="0 0 704 801" version="1.1" xmlns="http://www.w3.org/2000/svg">
<g id="#000000ff">
<path fill="#000000" opacity="1.00" d=" M 273.03 42.04 C 299.57 28.75 325.97 15.16 352.57 2.00 C 442.37 47.92 532.24 93.71 622.15 139.42 C 616.20 148.00 609.48 156.04 603.23 164.41 C 554.73 227.60 506.20 290.76 457.70 353.95 C 512.62 381.98 567.58 409.91 622.49 437.96 C 532.95 554.49 443.40 671.01 353.83 787.52 C 262.59 671.00 171.37 554.47 80.15 437.94 C 135.98 409.75 191.82 381.56 247.65 353.34 C 191.89 282.04 136.17 210.71 80.38 139.43 C 144.53 106.85 208.84 74.55 273.03 42.04 M 144.87 138.36 C 213.96 175.07 283.07 211.77 352.16 248.48 C 421.07 211.91 489.97 175.33 558.87 138.77 C 489.97 103.74 421.08 68.68 352.18 33.66 C 283.06 68.53 213.96 103.43 144.87 138.36 M 136.71 165.58 C 209.17 258.00 281.50 350.52 353.84 443.03 C 424.45 350.88 495.27 258.89 565.97 166.80 C 494.73 204.53 423.57 242.40 352.34 280.12 C 280.47 241.93 208.62 203.69 136.71 165.58 M 144.84 436.71 C 213.93 473.40 283.15 509.84 352.19 546.63 C 421.24 510.23 490.11 473.47 559.09 436.92 C 519.48 416.83 479.88 396.72 440.30 376.58 C 411.47 414.11 382.66 451.64 353.84 489.15 C 324.30 451.45 294.80 413.71 265.26 376.00 C 225.11 396.21 185.00 416.50 144.84 436.71 M 136.50 464.12 C 208.83 556.64 281.25 649.10 353.61 741.60 C 424.45 649.48 495.20 557.28 566.02 465.13 C 494.70 502.96 423.44 540.90 352.12 578.71 C 280.26 540.48 208.38 502.30 136.50 464.12 Z" />
</g>
</svg>
